<svg height="512pt" viewBox="0 0 512 512" width="512pt" xmlns="http://www.w3.org/2000/svg">
    <path d="m487.75 223.933594c0-.023438.003906-.042969.003906-.066406 0-.144532-.015625-.28125-.019531-.421876-2.09375-58.769531-25.957031-113.722656-67.757813-155.523437-43.796874-43.800781-102.035156-67.921875-163.976562-67.921875s-120.179688 24.121094-163.976562 67.921875c-41.800782 41.800781-65.664063 96.753906-67.753907 155.523437-.003906.140626-.023437.277344-.023437.421876 0 .023437.003906.042968.003906.066406-.089844 2.648437-.148438 5.300781-.148438 7.964844 0 26.582031 4.460938 52.65625 13.265626 77.492187 2.179687 6.148437 7.964843 9.992187 14.140624 9.992187 1.660157 0 3.351563-.277343 5.007813-.867187 7.808594-2.765625 11.894531-11.339844 9.128906-19.148437-6.890625-19.4375-10.714843-39.757813-11.414062-60.5h66.355469c.390624 23.359374 2.746093 46.28125 7.054687 68.222656 1.59375 8.128906 9.480469 13.425781 17.609375 11.828125 8.128906-1.59375 13.425781-9.476563 11.828125-17.609375-3.9375-20.046875-6.105469-41.023438-6.496094-62.441406h90.417969v65.332031c0 8.285156 6.71875 15 15 15 8.285156 0 15-6.714844 15-15v-65.332031h90.421875c-.390625 21.414062-2.5625 42.394531-6.496094 62.441406-1.597656 8.128906 3.699219 16.015625 11.828125 17.609375.976563.191406 1.949219.285156 2.90625.285156 7.023438 0 13.300782-4.960937 14.703125-12.113281 4.308594-21.941406 6.660157-44.863282 7.054688-68.226563h66.355469c-.703126 20.742188-4.527344 41.0625-11.414063 60.5-2.769531 7.808594 1.320313 16.382813 9.125 19.148438 7.8125 2.769531 16.382813-1.316407 19.152344-9.125 8.800781-24.839844 13.265625-50.910157 13.265625-77.488281-.003906-2.664063-.0625-5.316407-.152344-7.964844zm-31.171875-15.066406h-65.726563c-1.296874-23.054688-4.542968-45.386719-9.578124-66.398438h55.703124c10.136719 20.425781 16.910157 42.800781 19.601563 66.398438zm-37.898437-96.398438h-46.140626c-5.113281-14.753906-11.199218-28.589844-18.222656-41.226562-4.699218-8.460938-9.71875-16.214844-15.015625-23.246094 31.664063 14.398437 58.96875 36.746094 79.378907 64.472656zm-177.679688-80.320312v80.316406h-69.40625c16.53125-42.25 41.378906-72.292969 69.40625-80.316406zm30 0c28.027344 8.023437 52.875 38.066406 69.40625 80.316406h-69.40625zm-98.300781 15.847656c-5.296875 7.03125-10.316407 14.785156-15.019531 23.246094-7.019532 12.636718-13.105469 26.472656-18.21875 41.226562h-46.140626c20.410157-27.726562 47.71875-50.074219 79.378907-64.472656zm-97.675781 94.472656h55.703124c-5.035156 21.011719-8.28125 43.34375-9.578124 66.398438h-65.726563c2.691406-23.597657 9.464844-45.972657 19.601563-66.398438zm76.203124 66.398438c1.464844-23.488282 5.140626-45.886719 10.601563-66.398438h79.171875v66.398438zm119.773438-66.398438h79.175781c5.460938 20.511719 9.132813 42.910156 10.601563 66.398438h-89.777344zm0 0" fill="red"/>
    <path d="m487.75 223.933594c0-.023438.003906-.042969.003906-.066406 0-.144532-.015625-.28125-.019531-.421876-2.09375-58.769531-25.957031-113.722656-67.757813-155.523437-43.796874-43.800781-102.035156-67.921875-163.976562-67.921875v319.199219c8.285156 0 15-6.714844 15-15v-65.332031h90.421875c-.390625 21.414062-2.5625 42.394531-6.496094 62.441406-1.597656 8.128906 3.699219 16.015625 11.828125 17.609375.976563.191406 1.949219.285156 2.90625.285156 7.023438 0 13.300782-4.960937 14.703125-12.113281 4.308594-21.941406 6.660157-44.863282 7.054688-68.226563h66.355469c-.703126 20.742188-4.527344 41.0625-11.414063 60.5-2.769531 7.808594 1.320313 16.382813 9.125 19.148438 7.8125 2.769531 16.382813-1.316407 19.152344-9.125 8.800781-24.839844 13.265625-50.910157 13.265625-77.488281-.003906-2.664063-.0625-5.316407-.152344-7.964844zm-216.75-191.785156c28.027344 8.023437 52.875 38.066406 69.40625 80.316406h-69.40625zm0 176.71875v-66.398438h79.175781c5.460938 20.511719 9.132813 42.910156 10.601563 66.398438zm101.539062-96.398438c-5.109374-14.753906-11.199218-28.589844-18.21875-41.226562-4.703124-8.460938-9.722656-16.214844-15.019531-23.246094 31.660157 14.398437 58.96875 36.746094 79.378907 64.472656zm18.3125 96.398438c-1.296874-23.054688-4.542968-45.386719-9.578124-66.398438h55.703124c10.136719 20.425781 16.910157 42.800781 19.601563 66.398438zm0 0" fill="red"/>
    <path d="m456.835938 289.199219h-401.671876c-30.417968 0-55.164062 24.746093-55.164062 55.167969v112.46875c0 30.417968 24.746094 55.164062 55.164062 55.164062h401.667969c30.421875 0 55.167969-24.746094 55.167969-55.164062v-112.46875c0-30.421876-24.746094-55.167969-55.164062-55.167969zm0 0" fill="#007AFF"/>
    <path d="m456.835938 289.199219h-200.835938v222.800781h200.835938c30.417968 0 55.164062-24.746094 55.164062-55.164062v-112.46875c0-30.421876-24.746094-55.167969-55.164062-55.167969zm0 0" fill="#007AFF"/>
    <g fill="#ffffff">
        <path d="m174.464844 436.027344h-34.707032v-88.210938c0-6.535156-6.003906-10.925781-14.941406-10.925781-8.941406 0-14.945312 4.390625-14.945312 10.925781v104.441406c0 6.421876 5.746094 11.085938 13.660156 11.085938h50.933594c6.238281 0 10.765625-5.742188 10.765625-13.65625 0-8.042969-4.425781-13.660156-10.765625-13.660156zm0 0"/>
        <path d="m202.574219 336.890625c-8.9375 0-14.941407 4.390625-14.941407 10.925781v104.441406c0 6.527344 6.144532 11.085938 14.941407 11.085938 8.660156 0 14.945312-4.660156 14.945312-11.085938v-104.441406c0-6.535156-6.003906-10.925781-14.945312-10.925781zm0 0"/>
        <path d="m300.425781 336.890625c-8.519531 0-10.824219 5.269531-11.402343 7.464844l-20.101563 71.6875-20.21875-71.617188c-.597656-2.265625-2.902344-7.535156-11.421875-7.535156-7.226562 0-17.675781 4.691406-17.675781 13.175781 0 .875.210937 1.71875.453125 2.695313.019531.078125.042968.15625.0625.234375l31.011718 101.0625c.011719.035156.023438.070312.035157.105468 2.085937 6.257813 8.890625 10.144532 17.765625 10.144532 9.082031 0 15.902344-3.9375 17.800781-10.253906l30.851563-101.066407c.019531-.070312.039062-.140625.058593-.214843l.082031-.316407c.167969-.632812.375-1.417969.375-2.390625 0-8.484375-10.453124-13.175781-17.675781-13.175781zm0 0"/>
    </g>
    <path d="m391.039062 436.027344h-40.96875v-23.296875h19.921876c7.203124 0 11.089843-6.457031 11.089843-12.53125 0-7.332031-4.765625-12.855469-11.089843-12.855469h-19.921876v-23.136719h40.96875c6.429688 0 11.09375-5.8125 11.09375-13.816406 0-7.824219-4.664062-13.5-11.09375-13.5h-57.195312c-7.917969 0-13.660156 4.664063-13.660156 11.089844v104.277343c0 6.425782 5.742187 11.085938 13.660156 11.085938h57.195312c6.429688 0 11.09375-5.675781 11.09375-13.496094 0-8.007812-4.664062-13.820312-11.09375-13.820312zm0 0" fill="#ffffff"/>
    <path d="m300.425781 336.890625c-8.519531 0-10.824219 5.269531-11.402343 7.464844l-20.101563 71.6875-12.921875-45.769531v90.320312c3.246094 2.367188 7.730469 3.714844 12.933594 3.714844 9.082031 0 15.90625-3.9375 17.800781-10.257813l30.851563-101.0625c.019531-.070312.039062-.144531.058593-.214843l.082031-.316407c.167969-.632812.375-1.421875.375-2.390625 0-8.484375-10.453124-13.175781-17.675781-13.175781zm0 0" fill="#ffffff"/>
</svg>